Coordinates
version=1
nRows=6
nColumns=34
inDegrees=yes

Units are S.I. units (second, meters, Newtons, ...)
If the header above contains a line with 'inDegrees', this indicates whether rotational values are in degrees (yes) or radians (no).

endheader
time	pelvis_tilt	pelvis_list	pelvis_rotation	pelvis_tx	pelvis_ty	pelvis_tz	hip_flexion_r	hip_adduction_r	hip_rotation_r	knee_angle_r	ankle_angle_r	subtalar_angle_r	mtp_angle_r	hip_flexion_l	hip_adduction_l	hip_rotation_l	knee_angle_l	ankle_angle_l	subtalar_angle_l	mtp_angle_l	lumbar_extension	lumbar_bending	lumbar_rotation	arm_flex_r	arm_add_r	arm_rot_r	elbow_flex_r	pro_sup_r	arm_flex_l	arm_add_l	arm_rot_l	elbow_flex_l	pro_sup_l
      2.40000000	    -36.04924023	      4.96637366	      0.29671750	      0.76614671	      0.55022474	     -0.14610043	    107.96239220	    -16.56225997	      7.96958107	    105.44842868	     41.41040327	      6.76679558	      0.00000000	    109.35956800	    -17.84088541	      0.00122879	    104.40318057	     40.87628694	      9.47986389	      0.00000000	    -30.31435692	     -0.74786277	      1.73031129	    124.76854249	    -14.57873033	     40.33005991	    105.88434743	     98.70205207	    116.21288341	    -18.55784204	     35.94641331	    109.65919011	     94.40429529
      2.41666670	    -37.64369967	      5.22622613	      0.63746625	      0.76057327	      0.54841835	     -0.14746344	    110.32324703	    -16.19602730	      8.64656614	    105.46084068	     41.00340074	      5.64261027	      0.00000000	    111.38580558	    -17.34259142	     -0.25036755	    104.32965651	     40.66720379	      8.77986907	      0.00000000	    -30.80266247	     -1.06916261	      1.96653076	    126.07607426	    -14.23623628	     40.65910827	    103.05907011	     99.08362044	    117.66706411	    -17.00404332	     36.09480846	    106.31002115	     94.66993641
      2.43333330	    -39.34720385	      5.46426397	      0.64052924	      0.76816569	      0.54575303	     -0.14699903	    112.06463619	    -15.84219909	      8.84808860	    105.30960482	     40.65631785	      4.96341729	      0.00000000	    113.03772290	    -17.14043507	     -0.22599769	    104.23554863	     40.43933697	      8.47086891	      0.00000000	    -30.64088146	     -1.37557932	      2.23488580	    126.15534093	    -13.93976168	     41.34394590	    100.31234120	     99.23896306	    118.01250993	    -16.01771968	     36.18386890	    103.46234151	     94.71484717
      2.45000000	    -41.08304744	      5.62457320	      0.42796982	      0.78478743	      0.55298216	     -0.15142308	    112.62468934	    -15.70269094	      8.72126409	    104.46287692	     40.51079814	      4.55714517	      0.00000000	    113.56100452	    -16.94787984	     -0.36823594	    103.80827539	     40.87359771	      8.10023643	      0.00000000	    -29.52997458	     -1.43073308	      2.41108580	    122.99498254	    -14.11846184	     42.06197035	     97.50480937	     99.30266650	    115.51605963	    -15.16974035	     36.21821971	    101.12168414	     94.53234540
      2.46666670	    -41.57486404	      5.74847462	      0.25104955	      0.77955845	      0.55248868	     -0.14868796	    112.49836893	    -15.60273768	      8.61913352	    104.02071694	     40.08460943	      3.81008680	      0.00000000	    113.10142600	    -16.69547870	     -0.42942289	    103.22042269	     41.41467375	      7.62912425	      0.00000000	    -28.84802736	     -1.55197686	      2.62321602	    118.25964362	    -13.44767592	     41.29589677	     90.39880983	     98.92042659	    111.73458423	    -13.27203995	     35.05112398	     95.12127356	     93.90209463
      2.48333330	    -42.30427113	      6.04585444	      0.29588635	      0.79249066	      0.57182899	     -0.14797817	    111.54118263	    -15.68076489	      8.34234645	    102.56786051	     39.80265796	      3.36593341	      0.00000000	    111.66692920	    -16.32091010	     -1.10097589	    101.58927532	     41.15399702	      6.86198783	      0.00000000	    -28.31468760	     -1.56520123	      2.81202821	    113.64711163	    -14.09752924	     41.79246749	     81.96943727	     98.46516862	    107.18516515	    -12.43503360	     33.80941608	     86.73253934	     93.35990441
